<svg height="90" viewBox="0 0 90 90" width="90" xmlns="http://www.w3.org/2000/svg" xmlns:xlink="http://www.w3.org/1999/xlink"><linearGradient id="a" x1="50%" x2="50%" y1="0%" y2="100%"><stop offset="0" stop-color="#fed930"/><stop offset="1" stop-color="#fcb116"/></linearGradient><path d="m15 45.2600001c0-16.7121832 13.5478169-30.2600001 30.2600001-30.2600001 16.7121833 0 30.2600002 13.5478169 30.2600002 30.2600001 0 16.7121833-13.5478169 30.2600002-30.2600002 30.2600002-16.7121832 0-30.2600001-13.5478169-30.2600001-30.2600002zm8.8406787 15.3579262c4.7832763 6.6593964 12.5942608 10.9975578 21.4193214 10.9975578s16.6360452-4.3381614 21.4193215-10.9975578c-.3832527-3.2932153-2.7657396-6.0578568-6.044435-6.8775611l-3.9501502-.9874766c-3.1807165 2.730843-7.1880922 4.22066-11.4247363 4.22066-4.236644 0-8.2440198-1.489817-11.4248582-4.22066l-3.9501502.9874766c-3.2785734.8197043-5.6610604 3.5843458-6.044313 6.8775611zm7.7535149-21.2147004c0 7.5474297 6.1183768 13.6658065 13.6658065 13.6658065 7.5474298 0 13.6658066-6.1183768 13.6658066-13.6658065s-6.1183768-13.6658065-13.6658066-13.6658065c-7.5474297 0-13.6658065 6.1183768-13.6658065 13.6658065z" fill="url(#a)"/></svg>