<svg height="90" viewBox="0 0 90 90" width="90" xmlns="http://www.w3.org/2000/svg" xmlns:xlink="http://www.w3.org/1999/xlink"><linearGradient id="a" x1="50%" x2="50%" y1="0%" y2="100%"><stop offset="0" stop-color="#f98c49"/><stop offset="1" stop-color="#f15323"/></linearGradient><path d="m185.826532 26.9344355h-14.254055l4.064455-4.7117942c1.423128-1.4226432 1.423128-3.7330157 0-5.1556589-1.423129-1.4226432-3.73429-1.4226432-5.157418 0l-8.333841 9.6625925-8.333841-9.6512114c-1.423128-1.4226431-3.734289-1.4226431-5.157418 0-1.423128 1.4226432-1.423128 3.7330157 0 5.1556589l4.064455 4.7004131h-14.254055c-3.017033 0-5.464814 2.4469463-5.464814 5.4629498v32.7776989c0 3.0160036 2.447781 5.4629498 5.464814 5.4629498h1.821604v3.6419666h5.464814l2.425011-3.6419666h27.927475l2.425011 3.6419666h5.464814v-3.6419666h1.821604c3.017033 0 5.464814-2.4469462 5.464814-5.4629498v-32.7776989c.011385-3.0160035-2.436396-5.4629498-5.453429-5.4629498zm-8.19722 35.5091738s0 .9104916-19.126848.9104916c-17.305243 0-17.305243-.9104916-17.305243-.9104916s-.910803 0-.910803-13.6573745c0-13.6573746.910803-13.6573746.910803-13.6573746s0-.9104916 17.305243-.9104916c19.126848 0 19.126848.9104916 19.126848.9104916s.910802 0 .910802 13.6573746c0 13.6573745-.910802 13.6573745-.910802 13.6573745zm8.19722-11.3811455c0 .7511556-.614791 1.3657375-1.366203 1.3657375h-.910802c-.751412 0-1.366204-.6145819-1.366204-1.3657375v-.9104916c0-.7511556.614792-1.3657374 1.366204-1.3657374h.910802c.751412 0 1.366203.6145818 1.366203 1.3657374zm0-7.283933c0 .7511556-.614791 1.3657374-1.366203 1.3657374h-.910802c-.751412 0-1.366204-.6145818-1.366204-1.3657374v-.9104917c0-.7511556.614792-1.3657374 1.366204-1.3657374h.910802c.751412 0 1.366203.6145818 1.366203 1.3657374z" fill="url(#a)" transform="translate(-117)"/></svg>