<svg height="90" viewBox="0 0 90 90" width="90" xmlns="http://www.w3.org/2000/svg" xmlns:xlink="http://www.w3.org/1999/xlink"><linearGradient id="a" x1="50%" x2="50%" y1="0%" y2="100%"><stop offset="0" stop-color="#9bde7e"/><stop offset="1" stop-color="#62bb47"/></linearGradient><path d="m659.96 41.8594088c0-2.0391705-1.297961-3.7732852-3.108889-4.4165764v-11.197287c0-3.4492976-2.783816-6.2455454-6.217778-6.2455454-6.313473 5.4648522-13.798706 12.4910908-26.425555 12.4910908h-15.544445c-2.57552 0-4.663333 2.097137-4.663333 4.684159v9.3683181c0 2.587022 2.087813 4.684159 4.663333 4.684159h4.203121c-1.820837 6.3089767.240842 11.3570364 1.827832 16.3399081.165354.519161.505486.9654247.96395 1.256916 2.018835 1.2837524 6.640878 1.5279142 9.110308.5026689 1.558913-.6472923 1.939169-2.6761186.730783-3.8582833-1.798104-1.7590969-2.927796-3.6019231-1.92314-5.9389281.160401-.3724766.122192-.8011933-.101524-1.139129-1.584465-2.4083409-.347904-6.0608139 2.770506-7.0996237 11.408845.7061369 18.422109 7.2633741 24.388164 12.4275618 3.433962 0 6.217778-2.7962477 6.217778-6.2455454v-11.197287c1.810928-.6432911 3.108889-2.3774059 3.108889-4.4165764zm-9.326667 13.6479805c-5.305416-4.3893498-12.147303-9.0697029-21.762222-10.2448413v-6.8063759c9.614919-1.1751384 16.456806-5.8553939 21.762222-10.2448413z" fill="url(#a)" transform="translate(-585)"/></svg>