<svg height="90" viewBox="0 0 90 90" width="90" xmlns="http://www.w3.org/2000/svg" xmlns:xlink="http://www.w3.org/1999/xlink"><linearGradient id="a" x1="50%" x2="50%" y1="0%" y2="100%"><stop offset="0" stop-color="#00d5d4"/><stop offset="1" stop-color="#00aaa9"/></linearGradient><path d="m522.509865 39.0937501-4.05447-7.59375h1.564605c.695835 0 1.26-.5666836 1.26-1.265625v-4.2187501c0-.6989414-.564165-1.265625-1.26-1.265625h-5.168625l-3.282405-6.147668c-.229316-.3743149-.635544-.602332-1.0731-.602332h-6.067635c-.82425 0-1.42653.7818398-1.21968 1.5832969l3.49713 19.5529572c-3.426255.102621-6.626445.3899179-9.43761.8216015l-4.1811-6.9995391c-.227715-.3812136-.637857-.6144652-1.08045-.6144609h-4.469535c-.795165 0-1.39146.7306875-1.235535 1.5137929l1.738905 8.7333399c-1.310715.73575-2.04036 1.5510235-2.04036 2.4091172 0 .8580938.729645 1.6733672 2.040255 2.4091172l-1.7388 8.733129c-.155925.783211.44037 1.5138985 1.235535 1.513793l4.46964-.0002109c.442575 0 .852705-.2332969 1.080345-.614461l4.180995-6.9991172c2.811165.4316836 6.01146.7189804 9.437715.8216015l-3.49713 19.5527463c-.20685.801457.39543 1.5832969 1.21968 1.5832969h6.067635c.437556-.0000002.843784-.2280172 1.0731-.6023321l3.282405-6.147668h5.168625c.695835 0 1.26-.5666836 1.26-1.265625v-4.21875c0-.6989414-.564165-1.265625-1.26-1.265625h-1.564605l4.05447-7.5937501h13.050135c6.03099 0 10.92-2.6443125 10.92-5.90625 0-3.2619376-4.88901-5.9062501-10.92-5.9062501z" fill="url(#a)" transform="translate(-468)"/></svg>