<svg height="90" viewBox="0 0 90 90" width="90" xmlns="http://www.w3.org/2000/svg" xmlns:xlink="http://www.w3.org/1999/xlink"><linearGradient id="a" x1="50%" x2="50%" y1="0%" y2="100%"><stop offset="0" stop-color="#ce26bb"/><stop offset="1" stop-color="#a01185"/></linearGradient><path d="m261.616351 69.8800004h35.387839v-39.1914289h-3.538784v-5.3442857c0-2.9516045-2.376515-5.3442858-5.308176-5.3442858h-17.693919c-2.931661 0-5.308176 2.3926813-5.308176 5.3442858v5.3442857h-3.538784zm10.616352-42.7542861h14.155135v3.5628572h-14.155135zm35.387838 8.907143v28.5028573c0 2.9516045-2.376515 5.3442858-5.308176 5.3442858h-1.769392v-39.1914289h1.769392c2.931661 0 5.308176 2.3926813 5.308176 5.3442858zm-49.542973 33.8471431h-1.769392c-2.931661 0-5.308176-2.3926813-5.308176-5.3442858v-28.5028573c0-2.9516045 2.376515-5.3442858 5.308176-5.3442858h1.769392z" fill="url(#a)" transform="translate(-234)"/></svg>